<?xml version="1.0" encoding="utf-8"?>
<!-- Generator: Adobe Illustrator 17.0.0, SVG Export Plug-In . SVG Version: 6.00 Build 0)  -->
<!DOCTYPE svg PUBLIC "-//W3C//DTD SVG 1.1//EN" "http://www.w3.org/Graphics/SVG/1.1/DTD/svg11.dtd">
<svg version="1.1" id="Layer_1" xmlns="http://www.w3.org/2000/svg" xmlns:xlink="http://www.w3.org/1999/xlink" x="0px" y="0px"
	 width="174px" height="112px" viewBox="0 0 174 112" enable-background="new 0 0 174 112" xml:space="preserve">
<g>
	<path fill="#CACFD3" d="M8.883,0H1.31C0.585,0,0,0.588,0,1.311V16.69C0,17.413,0.585,18,1.31,18h7.573
		c0.724,0,1.31-0.587,1.31-1.31V1.311C10.193,0.588,9.607,0,8.883,0z M3.228,0.797h3.739c0.095,0,0.171,0.141,0.171,0.316
		S7.061,1.428,6.967,1.428H3.228c-0.095,0-0.17-0.142-0.17-0.316C3.057,0.938,3.133,0.797,3.228,0.797z M5.097,16.705
		c-0.461,0-0.836-0.375-0.836-0.837s0.375-0.835,0.836-0.835c0.46,0,0.835,0.374,0.835,0.835C5.932,16.33,5.557,16.705,5.097,16.705
		z M9.212,13.84h-8.23V2.213h8.23V13.84L9.212,13.84z"/>
</g>
<g>
	<path fill="#CACFD3" d="M31.389,0H12.718c-0.476,0-0.863,0.386-0.863,0.863v13.109c0,0.476,0.386,0.863,0.863,0.863h10.352
		L27.04,17.8c0.536,0.401,0.974,0.181,0.974-0.489v-2.479h3.374c0.476,0,0.863-0.386,0.863-0.863V0.862
		C32.251,0.386,31.865,0,31.389,0z M17.35,8.648c-0.737,0-1.334-0.598-1.334-1.334c0-0.737,0.598-1.334,1.334-1.334
		s1.334,0.598,1.334,1.334C18.682,8.051,18.085,8.648,17.35,8.648z M22.054,8.648c-0.737,0-1.334-0.598-1.334-1.334
		c0-0.737,0.598-1.334,1.334-1.334c0.736,0,1.334,0.598,1.334,1.334S22.79,8.648,22.054,8.648z M26.758,8.648
		c-0.737,0-1.334-0.598-1.334-1.334c0-0.737,0.598-1.334,1.334-1.334s1.334,0.598,1.334,1.334S27.494,8.648,26.758,8.648z"/>
</g>
<g>
	<path fill="#24A65A" d="M17.213,40.577h-1.207c2.332-1.509,3.879-4.133,3.879-7.112c0-4.668-3.797-8.465-8.465-8.465
		s-8.465,3.797-8.465,8.465c0,2.979,1.547,5.603,3.879,7.112H5.627C2.524,40.577,0,43.101,0,46.204v7.86C0,54.581,0.419,55,0.936,55
		h20.968c0.517,0,0.936-0.419,0.936-0.936v-7.86C22.84,43.101,20.316,40.577,17.213,40.577z M4.827,33.465
		c0-3.635,2.957-6.593,6.593-6.593c3.635,0,6.593,2.958,6.593,6.593s-2.958,6.593-6.593,6.593C7.785,40.057,4.827,37.1,4.827,33.465
		z M14.159,41.475l-2.739,2.739l-2.739-2.739c0.859,0.295,1.781,0.455,2.739,0.455S13.299,41.769,14.159,41.475z M20.968,53.128
		h-2.546V48.63c0-0.517-0.419-0.936-0.936-0.936s-0.936,0.419-0.936,0.936v4.498H6.29V48.63c0-0.517-0.419-0.936-0.936-0.936
		s-0.936,0.419-0.936,0.936v4.498H1.872v-6.924c0-2.07,1.684-3.755,3.755-3.755h1.381l3.75,3.75
		c0.183,0.183,0.422,0.274,0.662,0.274s0.479-0.091,0.662-0.274l3.75-3.75h1.381c2.07,0,3.755,1.684,3.755,3.755
		C20.968,46.204,20.968,53.128,20.968,53.128z"/>
</g>
<g>
	<g id="data">
		<path fill="#22A659" d="M37.125,25C30.803,25,24,26.906,24,31.094v17.812C24,53.092,30.803,55,37.125,55
			s13.125-1.908,13.125-6.094V31.094C50.25,26.906,43.446,25,37.125,25z M48.375,48.906c0,2.329-5.037,4.219-11.25,4.219
			c-6.214,0-11.25-1.89-11.25-4.219v-3.502c1.937,1.996,6.609,3.034,11.25,3.034s9.313-1.038,11.25-3.034V48.906z M48.375,43.281
			h-0.004c0,0.009,0.004,0.02,0.004,0.029c0,2.315-5.037,4.19-11.25,4.19s-11.25-1.875-11.25-4.19c0-0.009,0.004-0.02,0.004-0.029
			h-0.004v-3.502c1.937,1.996,6.609,3.034,11.25,3.034s9.313-1.038,11.25-3.034V43.281z M48.375,37.656h-0.004
			c0,0.009,0.004,0.02,0.004,0.029c0,2.315-5.037,4.19-11.25,4.19s-11.25-1.875-11.25-4.19c0-0.009,0.004-0.02,0.004-0.029h-0.004
			v-3.221c2.457,1.872,6.961,2.752,11.25,2.752s8.793-0.88,11.25-2.752V37.656z M37.125,35.313c-6.214,0-11.25-1.89-11.25-4.219
			c0-2.331,5.036-4.219,11.25-4.219c6.213,0,11.25,1.888,11.25,4.219C48.375,33.423,43.338,35.313,37.125,35.313z"/>
		<circle fill="#22A659" cx="45.562" cy="49.375" r="0.938"/>
		<circle fill="#22A659" cx="45.562" cy="43.75" r="0.938"/>
		<circle fill="#22A659" cx="45.562" cy="38.125" r="0.938"/>
	</g>
</g>
<g>
	<g>
		<g>
			<circle fill="#22A659" cx="78.548" cy="29.452" r="1.107"/>
			<path fill="#22A659" d="M78.548,30.585c-0.625,0-1.133-0.508-1.133-1.133s0.508-1.133,1.133-1.133s1.133,0.508,1.133,1.133
				S79.173,30.585,78.548,30.585z M78.548,28.372c-0.596,0-1.081,0.485-1.081,1.081c0,0.596,0.485,1.081,1.081,1.081
				s1.081-0.485,1.081-1.081C79.629,28.856,79.144,28.372,78.548,28.372z"/>
		</g>
		<g>
			<circle fill="#22A659" cx="75.248" cy="29.452" r="1.107"/>
			<path fill="#22A659" d="M75.248,30.585c-0.625,0-1.133-0.508-1.133-1.133s0.508-1.133,1.133-1.133s1.133,0.508,1.133,1.133
				C76.381,30.077,75.873,30.585,75.248,30.585z M75.248,28.372c-0.596,0-1.081,0.485-1.081,1.081c0,0.596,0.485,1.081,1.081,1.081
				s1.081-0.485,1.081-1.081C76.329,28.856,75.844,28.372,75.248,28.372z"/>
		</g>
		<g>
			<circle fill="#22A659" cx="71.949" cy="29.452" r="1.107"/>
			<path fill="#22A659" d="M71.949,30.585c-0.625,0-1.133-0.508-1.133-1.133s0.508-1.133,1.133-1.133s1.133,0.508,1.133,1.133
				S72.573,30.585,71.949,30.585z M71.949,28.372c-0.596,0-1.081,0.485-1.081,1.081c0,0.596,0.485,1.081,1.081,1.081
				s1.081-0.485,1.081-1.081C73.03,28.856,72.545,28.372,71.949,28.372z"/>
		</g>
		<g>
			<path fill="#22A659" d="M83.143,51.94V28.06c0-1.673-1.361-3.034-3.034-3.034H55.34c-1.673,0-3.034,1.361-3.034,3.034v23.88
				c0,1.673,1.361,3.034,3.034,3.034h24.77C81.782,54.974,83.143,53.613,83.143,51.94z M54.542,28.06
				c0-0.441,0.357-0.798,0.798-0.798h24.77c0.441,0,0.798,0.357,0.798,0.798v3.417H54.542V28.06z M54.542,51.94V33.712h26.366V51.94
				c0,0.441-0.358,0.798-0.798,0.798H55.34C54.899,52.739,54.542,52.381,54.542,51.94z"/>
			<path fill="#22A659" d="M80.11,55H55.34c-1.687,0-3.06-1.373-3.06-3.06V28.06c0-1.687,1.373-3.06,3.06-3.06h24.77
				c1.687,0,3.06,1.373,3.06,3.06v23.88C83.169,53.628,81.797,55,80.11,55z M55.34,25.052c-1.658,0-3.007,1.349-3.007,3.007V51.94
				c0,1.658,1.349,3.007,3.007,3.007h24.77c1.658,0,3.007-1.349,3.007-3.007V28.06c0-1.658-1.349-3.007-3.007-3.007
				C80.11,25.052,55.34,25.052,55.34,25.052z M80.11,52.765H55.34c-0.455,0-0.824-0.37-0.824-0.824V33.685h26.419V51.94
				C80.934,52.395,80.564,52.765,80.11,52.765z M54.568,33.738V51.94c0,0.426,0.346,0.772,0.772,0.772h24.77
				c0.426,0,0.772-0.346,0.772-0.772V33.738H54.568z M80.934,31.502H54.516V28.06c0-0.455,0.37-0.824,0.824-0.824h24.77
				c0.455,0,0.824,0.37,0.824,0.824V31.502L80.934,31.502z M54.568,31.45h26.314v-3.39c0-0.426-0.346-0.772-0.772-0.772H55.34
				c-0.426,0-0.772,0.346-0.772,0.772V31.45z"/>
		</g>
	</g>
</g>
<g>
	<g id="calendar_1_">
		<path fill="#22A659" d="M112.834,27.813h-4.063v-1.875c0-0.518-0.419-0.938-0.938-0.938s-0.938,0.419-0.938,0.938v1.875h-5.625
			v-1.875c0-0.518-0.42-0.938-0.938-0.938s-0.938,0.419-0.938,0.938v1.875h-5.625v-1.875c0-0.518-0.42-0.938-0.938-0.938
			s-0.938,0.419-0.938,0.938v1.875h-4.062c-1.381,0-2.5,1.118-2.5,2.499V52.5c0,1.381,1.119,2.5,2.5,2.5h25
			c1.381,0,2.499-1.119,2.499-2.5V30.312C115.333,28.931,114.215,27.813,112.834,27.813z M113.458,52.5
			c0,0.345-0.28,0.625-0.624,0.625h-25c-0.345,0-0.625-0.28-0.625-0.625V30.312c0-0.344,0.28-0.624,0.625-0.624h4.062v1.875
			c0,0.518,0.42,0.937,0.938,0.937s0.938-0.419,0.938-0.937v-1.875h5.625v1.875c0,0.518,0.42,0.937,0.938,0.937
			s0.938-0.419,0.938-0.937v-1.875h5.625v1.875c0,0.518,0.419,0.937,0.938,0.937s0.938-0.419,0.938-0.937v-1.875h4.063
			c0.344,0,0.624,0.28,0.624,0.624V52.5H113.458z"/>
		<rect x="91.896" y="36.25" fill="#22A659" width="3.75" height="2.812"/>
		<rect x="91.896" y="40.938" fill="#22A659" width="3.75" height="2.812"/>
		<rect x="91.896" y="45.625" fill="#22A659" width="3.75" height="2.812"/>
		<rect x="98.458" y="45.625" fill="#22A659" width="3.75" height="2.812"/>
		<rect x="98.458" y="40.938" fill="#22A659" width="3.75" height="2.812"/>
		<rect x="98.458" y="36.25" fill="#22A659" width="3.75" height="2.812"/>
		<rect x="105.021" y="45.625" fill="#22A659" width="3.75" height="2.812"/>
		<rect x="105.021" y="40.938" fill="#22A659" width="3.75" height="2.812"/>
		<rect x="105.021" y="36.25" fill="#22A659" width="3.75" height="2.812"/>
	</g>
</g>
<g>
	<path fill="#CACFD3" d="M49.507,8.243l-6.45-6.45c-0.41-0.41-0.41-1.075,0-1.486c0.41-0.41,1.075-0.41,1.485,0l5.707,5.707
		l5.707-5.707c0.41-0.41,1.075-0.41,1.486,0c0.41,0.41,0.41,1.075,0,1.486l-6.45,6.45C50.787,8.448,50.518,8.55,50.25,8.55
		C49.981,8.551,49.712,8.448,49.507,8.243z"/>
</g>
</svg>
