<?xml version="1.0" encoding="utf-8"?>
<!-- Generator: Adobe Illustrator 17.0.0, SVG Export Plug-In . SVG Version: 6.00 Build 0)  -->
<!DOCTYPE svg PUBLIC "-//W3C//DTD SVG 1.1//EN" "http://www.w3.org/Graphics/SVG/1.1/DTD/svg11.dtd">
<svg version="1.1" id="Capa_1" xmlns="http://www.w3.org/2000/svg" xmlns:xlink="http://www.w3.org/1999/xlink" x="0px" y="0px"
	 width="120.27px" height="59.618px" viewBox="-45.003 0 120.27 59.618" enable-background="new -45.003 0 120.27 59.618"
	 xml:space="preserve">
<g>
	<g>
		<path fill="#FFFFFF" d="M45.458,59.618c-16.437,0-29.809-13.372-29.809-29.809S29.021,0,45.458,0s29.809,13.372,29.809,29.809
			S61.894,59.618,45.458,59.618z M45.458,2.022c-15.321,0-27.787,12.465-27.787,27.787c0,15.321,12.466,27.787,27.787,27.787
			c15.324,0,27.787-12.466,27.787-27.787C73.245,14.487,60.781,2.022,45.458,2.022z"/>
		<path fill="#FFFFFF" d="M41.715,40.275c-0.259,0-0.518-0.098-0.714-0.296c-0.395-0.394-0.395-1.035,0-1.43l9.159-9.17
			l-9.159-9.169c-0.394-0.395-0.394-1.036,0-1.43c0.395-0.395,1.035-0.395,1.43,0l9.872,9.883c0.395,0.395,0.395,1.035,0,1.43
			l-9.872,9.883C42.233,40.177,41.974,40.275,41.715,40.275z"/>
	</g>
</g>
<g>
	<g>
		<path fill="#FFFFFF" d="M-15.194,0C1.243,0,14.615,13.372,14.615,29.809S1.243,59.618-15.194,59.618s-29.809-13.372-29.809-29.809
			S-31.631,0-15.194,0z M-15.194,57.596c15.321,0,27.787-12.465,27.787-27.787c0-15.321-12.466-27.787-27.787-27.787
			c-15.324,0-27.787,12.466-27.787,27.787C-42.981,45.131-30.518,57.596-15.194,57.596z"/>
		<path fill="#FFFFFF" d="M-11.451,19.343c0.259,0,0.518,0.098,0.714,0.296c0.395,0.394,0.395,1.035,0,1.43l-9.159,9.17l9.159,9.169
			c0.394,0.395,0.394,1.036,0,1.43c-0.395,0.395-1.035,0.395-1.43,0l-9.872-9.883c-0.395-0.395-0.395-1.035,0-1.43l9.872-9.883
			C-11.969,19.441-11.71,19.343-11.451,19.343z"/>
	</g>
</g>
</svg>
