<?xml version="1.0" encoding="utf-8"?>
<!-- Generator: Adobe Illustrator 17.0.0, SVG Export Plug-In . SVG Version: 6.00 Build 0)  -->
<!DOCTYPE svg PUBLIC "-//W3C//DTD SVG 1.1//EN" "http://www.w3.org/Graphics/SVG/1.1/DTD/svg11.dtd">
<svg version="1.1" id="Layer_1" xmlns="http://www.w3.org/2000/svg" xmlns:xlink="http://www.w3.org/1999/xlink" x="0px" y="0px"
	 width="152px" height="187.598px" viewBox="0 0 152 187.598" enable-background="new 0 0 152 187.598" xml:space="preserve">
<text transform="matrix(1 0 0 1 60.6663 14.0791)" fill="#9AA4AF" font-family="'OpenSans-Bold'" font-size="14.9522">micro</text>
<text transform="matrix(1 0 0 1 103.2723 14.0791)" fill="#9AA4AF" font-family="'OpenSans'" font-size="14.9522">engine</text>
<text transform="matrix(1 0 0 1 103.2307 14.0791)" fill="#9AA4AF" font-family="'OpenSans-Bold'" font-size="14.9522"> </text>
<path fill="#99A4AE" d="M44.777,0c-5.482,0-9.926,4.444-9.926,9.926s4.444,9.926,9.926,9.926s9.926-4.444,9.926-9.926
	S50.259,0,44.777,0z M44.777,15.069c-2.84,0-5.143-2.303-5.143-5.143s2.303-5.143,5.143-5.143s5.143,2.303,5.143,5.143
	S47.618,15.069,44.777,15.069z"/>
<path fill="#677786" d="M27.471,0c-5.482,0-9.926,4.444-9.926,9.926s4.444,9.926,9.926,9.926s9.926-4.444,9.926-9.926
	C37.398,4.444,32.953,0,27.471,0z M27.471,15.069c-2.84,0-5.143-2.303-5.143-5.143s2.303-5.143,5.143-5.143s5.143,2.303,5.143,5.143
	S30.312,15.069,27.471,15.069z"/>
<path fill="#36495E" d="M10.304,0C4.822,0,0.378,4.444,0.378,9.926s4.444,9.926,9.926,9.926s9.926-4.444,9.926-9.926
	S15.786,0,10.304,0z M10.304,15.069c-2.84,0-5.143-2.303-5.143-5.143s2.303-5.143,5.143-5.143s5.143,2.303,5.143,5.143
	S13.144,15.069,10.304,15.069z"/>
<text transform="matrix(1 0 0 1 60.6663 34.0803)" fill="#FFFFFF" font-family="'OpenSans-Bold'" font-size="14.9522">micro</text>
<text transform="matrix(1 0 0 1 103.2723 34.0803)" fill="#FFFFFF" font-family="'OpenSans'" font-size="14.9522">engine</text>
<text transform="matrix(1 0 0 1 103.2307 34.0803)" fill="#9AA4AF" font-family="'OpenSans-Bold'" font-size="14.9522"> </text>
<path fill="#E4E6EA" d="M10.304,20.001c-5.482,0-9.926,4.444-9.926,9.926s4.444,9.926,9.926,9.926s9.926-4.444,9.926-9.926
	S15.786,20.001,10.304,20.001z M10.304,35.071c-2.84,0-5.143-2.303-5.143-5.143s2.303-5.143,5.143-5.143s5.143,2.303,5.143,5.143
	S13.144,35.071,10.304,35.071z"/>
<rect y="41.001" fill="#FFFFFF" width="50" height="15.591"/>
<path fill="#E5E8EB" d="M38.193,41.001c-4.305,0-7.796,3.49-7.796,7.796c0,4.305,3.49,7.796,7.796,7.796s7.796-3.49,7.796-7.796
	C45.988,44.492,42.498,41.001,38.193,41.001z M38.193,52.836c-2.231,0-4.039-1.808-4.039-4.039s1.808-4.039,4.039-4.039
	c2.231,0,4.039,1.808,4.039,4.039S40.423,52.836,38.193,52.836z"/>
<path fill="#D9DDE1" d="M24.601,41.001c-4.305,0-7.796,3.49-7.796,7.796c0,4.305,3.49,7.796,7.796,7.796
	c4.305,0,7.796-3.49,7.796-7.796C32.397,44.492,28.907,41.001,24.601,41.001z M24.601,52.836c-2.231,0-4.039-1.808-4.039-4.039
	s1.808-4.039,4.039-4.039s4.039,1.808,4.039,4.039S26.832,52.836,24.601,52.836z"/>
<path fill="#CDD1D7" d="M11.119,41.001c-4.305,0-7.796,3.49-7.796,7.796c0,4.305,3.49,7.796,7.796,7.796
	c4.305,0,7.796-3.49,7.796-7.796C18.915,44.492,15.425,41.001,11.119,41.001z M11.119,52.836c-2.231,0-4.039-1.808-4.039-4.039
	s1.808-4.039,4.039-4.039s4.039,1.808,4.039,4.039S13.35,52.836,11.119,52.836z"/>
<g id="Close">
	<path fill="#FFFFFF" d="M61.322,48.028L65.6,43.75c0.394-0.394,0.394-1.032,0-1.426c-0.394-0.394-1.032-0.394-1.426,0l-4.278,4.278
		l-4.278-4.279c-0.394-0.394-1.032-0.394-1.426,0c-0.394,0.394-0.394,1.032,0,1.426l4.278,4.278l-4.278,4.278
		c-0.394,0.394-0.394,1.032,0,1.426c0.394,0.394,1.032,0.394,1.426,0l4.278-4.278l4.278,4.278c0.394,0.394,1.032,0.394,1.426,0
		s0.394-1.032,0-1.426L61.322,48.028z"/>
</g>
<g>
	<g>
		<path fill="#ABBBCE" d="M77.953,54.282h-7.706v-10.97h7.706c0.171,0,0.309-0.139,0.309-0.309v-1.14
			c0-0.171-0.139-0.309-0.309-0.309h-9.155c-0.171,0-0.309,0.139-0.309,0.309V55.73c0,0.171,0.139,0.309,0.309,0.309h9.155
			c0.171,0,0.309-0.139,0.309-0.309v-1.139C78.263,54.42,78.125,54.282,77.953,54.282z"/>
		<path fill="#ABBBCE" d="M83.398,48.578l-4.166-4.165c-0.116-0.116-0.322-0.116-0.438,0l-0.988,0.988
			c-0.121,0.121-0.121,0.317,0,0.438l1.882,1.882h-8.145c-0.171,0-0.309,0.139-0.309,0.309v1.534c0,0.171,0.139,0.309,0.309,0.309
			h8.146l-1.882,1.882c-0.121,0.121-0.121,0.317,0,0.438l0.988,0.989c0.058,0.058,0.137,0.091,0.219,0.091s0.161-0.033,0.219-0.091
			l4.166-4.165c0.058-0.058,0.091-0.137,0.091-0.219C83.489,48.715,83.456,48.636,83.398,48.578z"/>
	</g>
</g>
<g>
	<g>
		<path fill="#ABBBCE" d="M85.443,55.871H99.24c0.184,0,0.356-0.075,0.471-0.206c0.1-0.114,0.145-0.258,0.126-0.406
			c-0.324-2.521-1.874-4.621-3.995-5.741c-0.897,0.897-2.135,1.452-3.5,1.452s-2.603-0.555-3.5-1.452
			c-2.122,1.12-3.672,3.22-3.995,5.741c-0.019,0.148,0.026,0.293,0.126,0.406C85.087,55.796,85.259,55.871,85.443,55.871z"/>
		<path fill="#ABBBCE" d="M89.233,48.973c0.081,0.084,0.165,0.165,0.252,0.243c0.76,0.68,1.76,1.097,2.857,1.097
			s2.097-0.418,2.857-1.097c0.087-0.078,0.171-0.158,0.252-0.243c0.08-0.084,0.158-0.171,0.232-0.261
			c0.596-0.738,0.954-1.674,0.954-2.694c0-2.369-1.927-4.295-4.295-4.295s-4.295,1.927-4.295,4.295c0,1.02,0.359,1.956,0.954,2.694
			C89.074,48.802,89.152,48.888,89.233,48.973z"/>
	</g>
</g>
<g>
	<path fill="#4C637B" d="M26.053,83.534c-0.549,0.549-1.44,0.549-1.989,0L1.876,61.346c-0.549-0.549-0.549-1.44,0-1.989l0,0
		c0.549-0.549,1.44-0.549,1.989,0l22.187,22.187C26.602,82.094,26.602,82.985,26.053,83.534L26.053,83.534z"/>
	<path fill="#4C637B" d="M1.876,83.534c-0.549-0.549-0.549-1.44,0-1.989l22.187-22.187c0.549-0.549,1.44-0.549,1.989,0l0,0
		c0.549,0.549,0.549,1.44,0,1.989L3.865,83.534C3.316,84.083,2.426,84.083,1.876,83.534L1.876,83.534z"/>
</g>
<g>
	<path fill="#4C637B" d="M42.418,61.005c-2.746-2.746-7.215-2.746-9.962,0c-2.745,2.747-2.745,7.215,0,9.962
		c2.445,2.445,6.254,2.707,8.998,0.798c0.058,0.273,0.19,0.534,0.402,0.746l3.999,3.999c0.583,0.582,1.525,0.582,2.104,0
		c0.582-0.582,0.582-1.524,0-2.104l-3.999-4c-0.211-0.211-0.473-0.343-0.746-0.401C45.126,67.259,44.864,63.451,42.418,61.005z
		 M41.155,69.704c-2.05,2.05-5.387,2.05-7.436,0s-2.049-5.386,0-7.436c2.05-2.05,5.386-2.05,7.436,0
		C43.205,64.318,43.205,67.654,41.155,69.704z"/>
</g>
<path fill="#F2F3F4" d="M27.471,20.001c-5.482,0-9.926,4.444-9.926,9.926s4.444,9.926,9.926,9.926s9.926-4.444,9.926-9.926
	C37.398,24.445,32.953,20.001,27.471,20.001z M27.471,35.071c-2.84,0-5.143-2.303-5.143-5.143s2.303-5.143,5.143-5.143
	s5.143,2.303,5.143,5.143S30.312,35.071,27.471,35.071z"/>
<path fill="#FFFFFF" d="M44.777,20.001c-5.482,0-9.926,4.444-9.926,9.926s4.444,9.926,9.926,9.926s9.926-4.444,9.926-9.926
	S50.259,20.001,44.777,20.001z M44.777,35.071c-2.84,0-5.143-2.303-5.143-5.143s2.303-5.143,5.143-5.143s5.143,2.303,5.143,5.143
	S47.618,35.071,44.777,35.071z"/>
</svg>
