<?xml version="1.0" encoding="utf-8"?>
<!-- Generator: Adobe Illustrator 17.0.0, SVG Export Plug-In . SVG Version: 6.00 Build 0)  -->
<!DOCTYPE svg PUBLIC "-//W3C//DTD SVG 1.1//EN" "http://www.w3.org/Graphics/SVG/1.1/DTD/svg11.dtd">
<svg version="1.1" id="Layer_1" xmlns="http://www.w3.org/2000/svg" xmlns:xlink="http://www.w3.org/1999/xlink" x="0px" y="0px"
	 width="200.25px" height="187.598px" viewBox="0 0 200.25 187.598" enable-background="new 0 0 200.25 187.598"
	 xml:space="preserve">
<text transform="matrix(1 0 0 1 60.7959 153.2525)" fill="#9AA4AF" font-family="'OpenSans-Bold'" font-size="14.9522">micro</text>
<text transform="matrix(1 0 0 1 103.4019 153.2525)" fill="#9AA4AF" font-family="'OpenSans'" font-size="14.9522">engine</text>
<text transform="matrix(1 0 0 1 103.3603 153.2525)" fill="#9AA4AF" font-family="'OpenSans-Bold'" font-size="14.9522"> </text>
<path fill="#99A4AE" d="M44.907,139.173c-5.482,0-9.926,4.444-9.926,9.926c0,5.482,4.444,9.926,9.926,9.926s9.926-4.444,9.926-9.926
	C54.833,143.617,50.389,139.173,44.907,139.173z M44.907,154.242c-2.84,0-5.143-2.303-5.143-5.143c0-2.84,2.303-5.143,5.143-5.143
	s5.143,2.303,5.143,5.143C50.05,151.939,47.748,154.242,44.907,154.242z"/>
<path fill="#677786" d="M27.601,139.173c-5.482,0-9.926,4.444-9.926,9.926c0,5.482,4.444,9.926,9.926,9.926s9.926-4.444,9.926-9.926
	C37.528,143.617,33.083,139.173,27.601,139.173z M27.601,154.242c-2.84,0-5.143-2.303-5.143-5.143c0-2.84,2.303-5.143,5.143-5.143
	s5.143,2.303,5.143,5.143C32.744,151.939,30.442,154.242,27.601,154.242z"/>
<path fill="#36495E" d="M10.434,139.173c-5.482,0-9.926,4.444-9.926,9.926c0,5.482,4.444,9.926,9.926,9.926s9.926-4.444,9.926-9.926
	C20.36,143.617,15.916,139.173,10.434,139.173z M10.434,154.242c-2.84,0-5.143-2.303-5.143-5.143c0-2.84,2.303-5.143,5.143-5.143
	s5.143,2.303,5.143,5.143C15.577,151.939,13.274,154.242,10.434,154.242z"/>
<text transform="matrix(1 0 0 1 66.4492 15.4875)" fill="#FFFFFF" font-family="'OpenSans-Bold'" font-size="16.4475">micro</text>
<text transform="matrix(1 0 0 1 113.3154 15.4875)" fill="#FFFFFF" font-family="'OpenSans'" font-size="16.4475">engine</text>
<text transform="matrix(1 0 0 1 113.2705 15.4875)" fill="#9AA4AF" font-family="'OpenSans-Bold'" font-size="16.4475"> </text>
<path fill="#CBCED3" d="M11.051,0C5.02,0,0.132,4.888,0.132,10.919S5.02,21.837,11.051,21.837s10.919-4.888,10.919-10.919
	S17.081,0,11.051,0z M11.051,16.577c-3.124,0-5.657-2.533-5.657-5.657s2.533-5.657,5.657-5.657s5.657,2.533,5.657,5.657
	S14.175,16.577,11.051,16.577z"/>
<path fill="#E5E8EB" d="M38.193,59.002c-4.305,0-7.796,3.49-7.796,7.796c0,4.305,3.49,7.796,7.796,7.796s7.796-3.49,7.796-7.796
	C45.988,62.493,42.498,59.002,38.193,59.002z M38.193,70.837c-2.231,0-4.039-1.808-4.039-4.039s1.808-4.039,4.039-4.039
	c2.231,0,4.039,1.808,4.039,4.039S40.423,70.837,38.193,70.837z"/>
<path fill="#D9DDE1" d="M24.601,59.002c-4.305,0-7.796,3.49-7.796,7.796c0,4.305,3.49,7.796,7.796,7.796
	c4.305,0,7.796-3.49,7.796-7.796C32.397,62.493,28.907,59.002,24.601,59.002z M24.601,70.837c-2.231,0-4.039-1.808-4.039-4.039
	s1.808-4.039,4.039-4.039s4.039,1.808,4.039,4.039S26.832,70.837,24.601,70.837z"/>
<path fill="#CDD1D7" d="M11.119,59.002c-4.305,0-7.796,3.49-7.796,7.796c0,4.305,3.49,7.796,7.796,7.796
	c4.305,0,7.796-3.49,7.796-7.796C18.915,62.493,15.425,59.002,11.119,59.002z M11.119,70.837c-2.231,0-4.039-1.808-4.039-4.039
	s1.808-4.039,4.039-4.039s4.039,1.808,4.039,4.039S13.35,70.837,11.119,70.837z"/>
<g id="Close">
	<path fill="#FFFFFF" d="M61.322,66.029l4.278-4.278c0.394-0.394,0.394-1.032,0-1.426c-0.394-0.394-1.032-0.394-1.426,0
		l-4.278,4.278l-4.278-4.279c-0.394-0.394-1.032-0.394-1.426,0c-0.394,0.394-0.394,1.032,0,1.426l4.278,4.278l-4.278,4.278
		c-0.394,0.394-0.394,1.032,0,1.426s1.032,0.394,1.426,0l4.278-4.278l4.278,4.278c0.394,0.394,1.032,0.394,1.426,0
		s0.394-1.032,0-1.426L61.322,66.029z"/>
</g>
<g>
	<g>
		<path fill="#ABBBCE" d="M77.953,72.283h-7.706v-10.97h7.706c0.171,0,0.309-0.139,0.309-0.309v-1.14
			c0-0.171-0.139-0.309-0.309-0.309h-9.155c-0.171,0-0.309,0.139-0.309,0.309v13.867c0,0.171,0.139,0.309,0.309,0.309h9.155
			c0.171,0,0.309-0.139,0.309-0.309v-1.139C78.263,72.421,78.125,72.283,77.953,72.283z"/>
		<path fill="#ABBBCE" d="M83.398,66.579l-4.166-4.165c-0.116-0.116-0.322-0.116-0.438,0l-0.988,0.988
			c-0.121,0.121-0.121,0.317,0,0.438l1.882,1.882h-8.145c-0.171,0-0.309,0.139-0.309,0.309v1.534c0,0.171,0.139,0.309,0.309,0.309
			h8.146l-1.882,1.882c-0.121,0.121-0.121,0.317,0,0.438l0.988,0.989c0.058,0.058,0.137,0.091,0.219,0.091s0.161-0.033,0.219-0.091
			l4.166-4.165c0.058-0.058,0.091-0.137,0.091-0.219C83.489,66.716,83.456,66.637,83.398,66.579z"/>
	</g>
</g>
<g>
	<g>
		<path fill="#ABBBCE" d="M85.443,73.872H99.24c0.184,0,0.356-0.075,0.471-0.206c0.1-0.114,0.145-0.258,0.126-0.406
			c-0.324-2.521-1.874-4.621-3.995-5.741c-0.897,0.897-2.135,1.452-3.5,1.452s-2.603-0.555-3.5-1.452
			c-2.122,1.12-3.672,3.22-3.995,5.741c-0.019,0.148,0.026,0.293,0.126,0.406C85.087,73.797,85.259,73.872,85.443,73.872z"/>
		<path fill="#ABBBCE" d="M89.233,66.974c0.081,0.084,0.165,0.165,0.252,0.243c0.76,0.68,1.76,1.097,2.857,1.097
			s2.097-0.418,2.857-1.097c0.087-0.078,0.171-0.158,0.252-0.243c0.08-0.084,0.158-0.171,0.232-0.261
			c0.596-0.738,0.954-1.674,0.954-2.694c0-2.369-1.927-4.295-4.295-4.295s-4.295,1.927-4.295,4.295c0,1.02,0.359,1.956,0.954,2.694
			C89.074,66.803,89.152,66.889,89.233,66.974z"/>
	</g>
</g>
<g>
	<path fill="#4C637B" d="M26.053,101.535c-0.549,0.549-1.44,0.549-1.989,0L1.876,79.347c-0.549-0.549-0.549-1.44,0-1.989l0,0
		c0.549-0.549,1.44-0.549,1.989,0l22.187,22.187C26.602,100.095,26.602,100.986,26.053,101.535L26.053,101.535z"/>
	<path fill="#4C637B" d="M1.876,101.535c-0.549-0.549-0.549-1.44,0-1.989l22.187-22.187c0.549-0.549,1.44-0.549,1.989,0l0,0
		c0.549,0.549,0.549,1.44,0,1.989L3.865,101.535C3.316,102.084,2.426,102.084,1.876,101.535L1.876,101.535z"/>
</g>
<g>
	<path fill="#4C637B" d="M42.418,79.006c-2.746-2.746-7.215-2.746-9.962,0c-2.745,2.747-2.745,7.215,0,9.962
		c2.445,2.445,6.254,2.707,8.998,0.798c0.058,0.273,0.19,0.534,0.402,0.746l3.999,3.999c0.583,0.582,1.525,0.582,2.104,0
		c0.582-0.582,0.582-1.524,0-2.104l-3.999-4c-0.211-0.211-0.473-0.343-0.746-0.401C45.126,85.26,44.864,81.452,42.418,79.006z
		 M41.155,87.705c-2.05,2.05-5.387,2.05-7.436,0s-2.049-5.386,0-7.436c2.05-2.05,5.386-2.05,7.436,0
		C43.205,82.319,43.205,85.655,41.155,87.705z"/>
</g>
<path fill="#E4E6EA" d="M29.934,0c-6.03,0-10.919,4.888-10.919,10.919s4.888,10.919,10.919,10.919s10.919-4.888,10.919-10.919
	C40.854,4.888,35.965,0,29.934,0z M29.934,16.577c-3.124,0-5.657-2.533-5.657-5.657s2.533-5.657,5.657-5.657
	s5.657,2.533,5.657,5.657S33.059,16.577,29.934,16.577z"/>
<path fill="#F2F3F4" d="M48.971,0c-6.03,0-10.919,4.888-10.919,10.919s4.888,10.919,10.919,10.919S59.89,16.949,59.89,10.919
	S55.001,0,48.971,0z M48.971,16.577c-3.124,0-5.657-2.533-5.657-5.657s2.533-5.657,5.657-5.657c3.124,0,5.657,2.533,5.657,5.657
	S52.096,16.577,48.971,16.577z"/>
</svg>
